<svg width="48" height="48" viewBox="0 0 48 48" fill="none" xmlns="http://www.w3.org/2000/svg">
<g clip-path="url(#clip0_1_1030)">
<path d="M24 47C36.7025 47 47 36.7025 47 24C47 11.2975 36.7025 1 24 1C11.2975 1 1 11.2975 1 24C1 36.7025 11.2975 47 24 47Z" stroke="black" stroke-width="2"/>
<path d="M24 22.81L36.78 14.6C36.2662 14.2146 35.6423 14.0043 35 14H13C12.3577 14.0043 11.7338 14.2146 11.22 14.6L24 22.81ZM24.54 24.84L24.37 24.92H24.29C24.1979 24.9611 24.1001 24.9881 24 25C23.917 25.0105 23.833 25.0105 23.75 25H23.67L23.5 24.92L10.1 16.26C10.036 16.5015 10.0024 16.7501 10 17V31C10 31.7956 10.3161 32.5587 10.8787 33.1213C11.4413 33.6839 12.2044 34 13 34H35C35.7956 34 36.5587 33.6839 37.1213 33.1213C37.6839 32.5587 38 31.7956 38 31V17C37.9976 16.7501 37.964 16.5015 37.9 16.26L24.54 24.84Z" fill="black"/>
</g>
<defs>
<clipPath id="clip0_1_1030">
<rect width="48" height="48" fill="white"/>
</clipPath>
</defs>
</svg>
